<svg width="279" height="137" viewBox="0 0 279 137" fill="none" xmlns="http://www.w3.org/2000/svg">
<path d="M55.0544 56.3015C49.5115 54.2941 43.6028 53.5171 37.7337 54.0241C31.8645 54.531 26.1737 56.3097 21.0514 59.2383C15.9292 62.1669 11.4968 66.1761 8.05818 70.9909C4.61955 75.8057 2.25606 81.3121 1.12979 87.1327C0.00352502 92.9532 0.141126 98.9501 1.53316 104.712C2.9252 110.474 5.53874 115.865 9.19454 120.515C12.8503 125.164 17.4619 128.963 22.713 131.651C27.9641 134.338 33.7304 135.85 39.6166 136.084C36.2704 122.456 35.9182 108.256 38.5845 94.4769C41.2508 80.6973 46.8715 67.6693 55.0544 56.3015Z" fill="white"/>
<path d="M223.743 56.3015C229.285 54.2941 235.194 53.5171 241.063 54.0241C246.933 54.531 252.623 56.3097 257.746 59.2383C262.868 62.1669 267.3 66.1761 270.739 70.9909C274.177 75.8057 276.541 81.3121 277.667 87.1327C278.793 92.9532 278.656 98.9501 277.264 104.712C275.872 110.474 273.258 115.865 269.602 120.515C265.947 125.164 261.335 128.963 256.084 131.651C250.833 134.338 245.067 135.85 239.18 136.084C242.527 122.456 242.879 108.256 240.213 94.4769C237.546 80.6973 231.925 67.6693 223.743 56.3015Z" fill="white"/>
<path d="M90.6346 136.084C84.4641 133.911 78.913 130.32 74.4452 125.611C69.9773 120.902 66.7226 115.212 64.9529 109.015C63.1832 102.819 62.9501 96.2968 64.2729 89.9939C65.5957 83.6911 68.4361 77.7905 72.5567 72.7855C76.6773 67.7805 81.9584 63.8164 87.9585 61.2245C93.9587 58.6326 100.504 57.4881 107.047 57.8868C113.589 58.2854 119.94 60.2156 125.568 63.5161C131.195 66.8165 135.936 71.3913 139.395 76.8581C142.852 71.3903 147.592 66.8142 153.219 63.5124C158.846 60.2105 165.196 58.2788 171.739 57.8787C178.282 57.4786 184.828 58.6217 190.829 61.2125C196.83 63.8033 202.112 67.7665 206.233 72.7709C210.355 77.7753 213.197 83.6755 214.521 89.9783C215.845 96.2812 215.613 102.804 213.844 109C212.075 115.197 208.821 120.888 204.354 125.598C199.887 130.308 194.336 133.9 188.166 136.074H233.231C235.958 123.622 236.086 110.758 233.61 98.2559C231.134 85.7542 226.103 73.8745 218.823 63.3332C211.542 52.7919 202.161 43.8076 191.247 36.9221C180.333 30.0366 168.111 25.3927 155.319 23.2703C155.829 21.1888 156.163 19.0695 156.317 16.934C156.544 13.3301 155.956 9.72165 154.597 6.36649C152.771 1.93732 149.416 -2.13752 148.355 -1.66854C147.293 -1.19957 149.947 4.30304 148.005 11.7649C147.41 14.0264 146.476 16.1628 145.881 16.0794C145.287 15.996 145.637 13.5782 144.544 10.4518C143.45 7.32529 141.231 4.62611 140.573 4.88664C139.628 5.27224 142.834 11.3272 139.968 14.7663C139.236 15.6313 138.79 15.6938 137.484 16.4546C135.273 17.8395 133.541 19.8486 132.515 22.2178C118.811 23.1938 105.479 27.0454 93.4198 33.5122C81.361 39.9791 70.8561 48.9108 62.6145 59.7041C54.3729 70.4975 48.5864 82.9012 45.6458 96.0777C42.7052 109.254 42.679 122.897 45.5689 136.084H90.6346Z" fill="white"/>
<path d="M101.007 117.558C109.681 117.558 116.713 110.559 116.713 101.926C116.713 93.2931 109.681 86.2946 101.007 86.2946C92.3336 86.2946 85.302 93.2931 85.302 101.926C85.302 110.559 92.3336 117.558 101.007 117.558Z" fill="white"/>
<path d="M173.136 117.558C181.81 117.558 188.842 110.559 188.842 101.926C188.842 93.2931 181.81 86.2946 173.136 86.2946C164.462 86.2946 157.431 93.2931 157.431 101.926C157.431 110.559 164.462 117.558 173.136 117.558Z" fill="white"/>
</svg>
